<svg xmlns="http://www.w3.org/2000/svg" width="48" height="48" fill="none" viewBox="0 0 48 48">
  <defs>
    <linearGradient id="a" x1="6" y1="4" x2="44" y2="46" gradientUnits="userSpaceOnUse">
      <stop stop-color="#818cf8"/>
      <stop offset=".45" stop-color="#6366f1"/>
      <stop offset="1" stop-color="#c084fc"/>
    </linearGradient>
    <linearGradient id="b" x1="24" y1="8" x2="40" y2="40" gradientUnits="userSpaceOnUse">
      <stop stop-color="#fff" stop-opacity=".22"/>
      <stop offset="1" stop-color="#fff" stop-opacity="0"/>
    </linearGradient>
  </defs>
  <rect width="44" height="44" x="2" y="2" fill="url(#a)" rx="13"/>
  <rect width="44" height="44" x="2" y="2" fill="url(#b)" rx="13"/>
  <path fill="#fff" fill-opacity=".92" d="M14 15c0-.55.45-1 1-1h14c.55 0 1 .45 1 1v2.25c0 .41-.34.75-.75.75H14.75c-.41 0-.75-.34-.75-.75z"/>
  <path fill="#fff" fill-opacity=".85" d="M14 22h16v3H14z"/>
  <path fill="#fff" fill-opacity=".72" d="M14 28h12v3H14z"/>
  <path fill="#fff" fill-opacity=".58" d="M14 34h15v3H14z"/>
  <path fill="#fff" fill-opacity=".34" d="M33 4h11a2 2 0 012 2v11L33 4z"/>
</svg>
